<svg aria-hidden="true" focusable="false" role="img" xmlns="http://www.w3.org/2000/svg" width="32" height="32" viewBox="0 0 32 32">
	<path fill="currentColor" d="M29.396,0.04h-5.78c-1.41,0-2.56,1.16-2.56,2.57l-0.021,7.51h-8.399c-1.391,0-2.521,1.14-2.521,2.52v8.4h-7.55
		c-1.39,0-2.52,1.14-2.52,2.52v5.881c0,1.38,1.13,2.52,2.52,2.52h26.92c1.36-0.05,2.47-1.19,2.47-2.57V2.61
		C31.955,1.2,30.806,0.04,29.396,0.04z M2.046,29.44V23.56c0-0.279,0.239-0.52,0.52-0.52c0,0,7.23,0,8.63,0
		c0.5,0,0.92-0.37,0.92-0.95c0-1.14,0-9.45,0-9.45c0-0.28,0.24-0.52,0.521-0.52h8.399v17.84H2.565
		C2.285,29.96,2.046,29.71,2.046,29.44z"/>
</svg>
