<svg aria-hidden="true" focusable="false" role="img" xmlns="http://www.w3.org/2000/svg" width="32" height="32" viewBox="0 0 32 32">
	<path fill="currentColor" d="M28.512,16.481c-1.76,0-3.305-0.938-4.159-2.341c-0.86,1.402-2.414,2.341-4.186,2.341c-1.763,0-3.312-0.938-4.167-2.341
		c-0.858,1.402-2.409,2.341-4.176,2.341c-1.771,0-3.326-0.938-4.187-2.341c-0.854,1.402-2.398,2.341-4.157,2.341
		c-0.457,0-0.898-0.064-1.317-0.182v12.362c0,1,0.814,1.814,1.814,1.814h24.048c1.001,0,1.813-0.814,1.813-1.814V16.296
		C29.415,16.416,28.971,16.481,28.512,16.481z M24.043,27.823c-2.361,0-4.282-1.921-4.282-4.281c0-2.361,1.921-4.281,4.282-4.281
		c1.017,0,2.001,0.362,2.774,1.021c0.299,0.254,0.334,0.701,0.081,0.999c-0.254,0.3-0.703,0.335-1.001,0.081
		c-0.516-0.44-1.175-0.683-1.854-0.683c-1.579,0-2.862,1.284-2.862,2.862c0,1.579,1.283,2.862,2.862,2.862
		c1.334,0,2.457-0.916,2.773-2.153h-2.381c-0.392,0-0.71-0.317-0.71-0.709c0-0.393,0.318-0.71,0.71-0.71h3.179
		c0.392,0,0.709,0.317,0.71,0.71C28.324,25.902,26.403,27.823,24.043,27.823z"/>
	<path fill="currentColor" d="M31.892,12.326c-0.328,1.561-1.72,2.737-3.38,2.737c-1.658,0-3.045-1.176-3.374-2.737l-0.159-1.419l-1.232-9.381h4.32
		c0.845,0,1.576,0.572,1.779,1.386l1.93,7.995L31.892,12.326z"/>
	<path fill="currentColor" d="M23.57,12.326c-0.331,1.561-1.73,2.737-3.403,2.737c-1.662,0-3.055-1.176-3.384-2.737l-0.073-1.42V1.525h5.605l1.23,9.381
		L23.57,12.326z"/>
	<path fill="currentColor" d="M15.291,1.525v9.381l-0.074,1.42c-0.331,1.561-1.726,2.737-3.393,2.737c-1.673,0-3.073-1.176-3.404-2.737l0.019-1.42
		l1.163-9.381H15.291L15.291,1.525z"/>
	<path fill="currentColor" d="M8.17,1.525l-1.138,9.178l-0.181,1.623c-0.329,1.561-1.715,2.737-3.372,2.737c-1.657,0-3.043-1.177-3.372-2.737l0.126-1.42
		l2.013-8.007c0.21-0.809,0.939-1.374,1.775-1.374H8.17L8.17,1.525z"/>
</svg>
