<svg aria-hidden="true" focusable="false" role="img" xmlns="http://www.w3.org/2000/svg" width="32" height="32" viewBox="0 0 32 32">
  <path fill="currentColor" d="M16.004,7.794c-4.541,0-8.203,3.662-8.203,8.203c0,4.54,3.662,8.202,8.203,8.202c4.54,0,8.202-3.662,8.202-8.202
    C24.206,11.457,20.544,7.794,16.004,7.794z M16.004,21.329c-2.934,0-5.333-2.391-5.333-5.332s2.392-5.333,5.333-5.333
    s5.333,2.392,5.333,5.333S18.938,21.329,16.004,21.329L16.004,21.329z M26.455,7.458c0,1.064-0.856,1.914-1.913,1.914
    c-1.063,0-1.913-0.857-1.913-1.914c0-1.056,0.856-1.913,1.913-1.913S26.455,6.402,26.455,7.458z M31.888,9.4
    c-0.121-2.563-0.707-4.833-2.584-6.703c-1.87-1.871-4.141-2.456-6.703-2.584c-2.642-0.15-10.559-0.15-13.2,0
    C6.845,0.234,4.575,0.819,2.697,2.69C0.819,4.56,0.241,6.831,0.113,9.394c-0.15,2.641-0.15,10.559,0,13.199
    c0.121,2.563,0.707,4.833,2.584,6.704c1.878,1.87,4.141,2.455,6.704,2.584c2.641,0.15,10.559,0.15,13.2,0
    c2.563-0.121,4.833-0.707,6.703-2.584c1.87-1.871,2.456-4.141,2.584-6.704C32.038,19.952,32.038,12.042,31.888,9.4z M28.476,25.428
    c-0.557,1.398-1.635,2.477-3.041,3.041c-2.106,0.835-7.104,0.643-9.431,0.643s-7.332,0.186-9.431-0.643
    c-1.399-0.557-2.477-1.635-3.041-3.041c-0.835-2.106-0.643-7.104-0.643-9.431c0-2.328-0.186-7.332,0.643-9.431
    c0.557-1.399,1.635-2.477,3.041-3.041c2.106-0.835,7.104-0.643,9.431-0.643s7.332-0.186,9.431,0.643
    c1.399,0.557,2.477,1.635,3.041,3.041c0.835,2.106,0.643,7.103,0.643,9.431C29.118,18.324,29.311,23.328,28.476,25.428z"/>
</svg>