<svg aria-hidden="true" focusable="false" role="img" xmlns="http://www.w3.org/2000/svg" width="32" height="32" viewBox="0 0 32 32">
  <path fill="currentColor" d="M7.163,32.017H0.528V10.652h6.634V32.017z M3.842,7.738C1.721,7.738,0,5.98,0,3.859c0-2.122,1.721-3.842,3.843-3.842
    c2.122,0,3.841,1.72,3.841,3.842C7.684,5.98,5.963,7.738,3.842,7.738z M31.993,32.017h-6.62v-10.4c0-2.479-0.05-5.657-3.449-5.657
    c-3.449,0-3.979,2.693-3.979,5.479v10.579h-6.627V10.652h6.363v2.915h0.093c0.886-1.679,3.049-3.45,6.277-3.45
    c6.714,0,7.948,4.421,7.948,10.164v11.736H31.993z"/>
</svg>