<svg aria-hidden="true" focusable="false" role="img" xmlns="http://www.w3.org/2000/svg" width="32" height="32" viewBox="0 0 32 32">
  <path fill="currentColor" d="M16.77,0C10.191,0,3.69,4.385,3.69,11.482c0,4.514,2.539,7.079,4.078,7.079c0.635,0,1-1.77,1-2.271
    c0-0.596-1.519-1.865-1.519-4.347c0-5.155,3.923-8.809,9.001-8.809c4.365,0,7.598,2.481,7.598,7.04c0,3.404-1.365,9.79-5.789,9.79
    c-1.597,0-2.963-1.153-2.963-2.808c0-2.424,1.693-4.771,1.693-7.271c0-4.244-6.021-3.475-6.021,1.655c0,1.077,0.135,2.27,0.616,3.25
    c-0.885,3.809-2.693,9.482-2.693,13.406c0,1.212,0.173,2.404,0.289,3.616c0.218,0.244,0.109,0.218,0.442,0.097
    c3.231-4.425,3.116-5.29,4.578-11.079c0.789,1.5,2.828,2.308,4.444,2.308c6.809,0,9.867-6.636,9.867-12.617
    C28.311,4.155,22.809,0,16.77,0z"/>
</svg>