<svg aria-hidden="true" focusable="false" role="img" xmlns="http://www.w3.org/2000/svg" width="32" height="32" viewBox="0 0 32 32">
  <path fill="currentColor" d="M28.711,9.482c0.021,0.284,0.021,0.568,0.021,0.853c0,8.67-6.6,18.66-18.66,18.66c-3.716,0-7.167-1.076-10.071-2.944
    c0.528,0.061,1.036,0.081,1.584,0.081c3.066,0,5.888-1.035,8.142-2.802c-2.883-0.062-5.3-1.949-6.132-4.549
    C4,18.843,4.406,18.883,4.833,18.883c0.589,0,1.178-0.081,1.726-0.223c-3.005-0.609-5.259-3.249-5.259-6.437v-0.082
    c0.873,0.487,1.889,0.792,2.965,0.833C2.498,11.797,1.34,9.786,1.34,7.513c0-1.219,0.325-2.335,0.893-3.31
    c3.229,3.979,8.082,6.578,13.522,6.862c-0.102-0.487-0.162-0.994-0.162-1.502c0-3.614,2.924-6.559,6.559-6.559
    c1.889,0,3.594,0.792,4.792,2.071c1.482-0.284,2.903-0.833,4.162-1.584c-0.487,1.522-1.522,2.802-2.883,3.614
    C29.543,6.965,30.822,6.599,32,6.091C31.106,7.391,29.99,8.548,28.711,9.482L28.711,9.482z"/>
</svg>