<svg aria-hidden="true" focusable="false" role="img" xmlns="http://www.w3.org/2000/svg" width="32" height="32" viewBox="0 0 32 32">
  <path fill="currentColor" d="M27.207,4.65C24.214,1.65,20.229,0,15.993,0C7.25,0,0.136,7.114,0.136,15.857c0,2.793,0.729,5.521,2.114,7.929L0,32
    l8.407-2.207c2.314,1.265,4.921,1.929,7.579,1.929h0.007C24.729,31.722,32,24.607,32,15.864C32,11.629,30.2,7.65,27.207,4.65z
    M15.993,29.05c-2.371,0-4.693-0.636-6.714-1.836L8.8,26.929l-4.985,1.307l1.329-4.864l-0.314-0.5
    c-1.321-2.1-2.014-4.521-2.014-7.014C2.814,8.593,8.729,2.679,16,2.679c3.521,0,6.828,1.371,9.314,3.864
    c2.485,2.493,4.014,5.8,4.007,9.321C29.321,23.136,23.257,29.05,15.993,29.05z M23.222,19.179c-0.394-0.2-2.343-1.157-2.707-1.286
    c-0.364-0.136-0.629-0.199-0.894,0.2c-0.264,0.4-1.021,1.286-1.257,1.558c-0.229,0.264-0.464,0.3-0.857,0.1
    c-2.328-1.164-3.857-2.078-5.393-4.714c-0.407-0.7,0.407-0.65,1.165-2.165c0.128-0.264,0.064-0.492-0.036-0.692
    c-0.1-0.2-0.893-2.15-1.221-2.943c-0.321-0.771-0.65-0.664-0.893-0.679c-0.229-0.014-0.493-0.014-0.757-0.014
    c-0.265,0-0.693,0.1-1.057,0.493c-0.364,0.399-1.386,1.356-1.386,3.307s1.421,3.836,1.614,4.1c0.2,0.265,2.792,4.265,6.771,5.986
    c2.514,1.086,3.5,1.179,4.757,0.993c0.765-0.115,2.343-0.958,2.672-1.886c0.328-0.929,0.328-1.722,0.229-1.886
    C23.879,19.472,23.614,19.371,23.222,19.179z"/>
</svg>