<svg aria-hidden="true" focusable="false" role="img" xmlns="http://www.w3.org/2000/svg" width="32" height="32" viewBox="0 0 32 32">
  <path fill="currentColor" d="M31.331,8.271c-0.368-1.386-1.452-2.478-2.829-2.848C26.006,4.75,16,4.75,16,4.75s-10.007,0-12.503,0.673
    C2.12,5.794,1.036,6.885,0.668,8.271C0,10.782,0,16.022,0,16.022s0,5.241,0.669,7.753c0.368,1.386,1.452,2.432,2.829,2.802
    C5.993,27.25,16,27.25,16,27.25s10.006,0,12.502-0.673c1.377-0.37,2.461-1.416,2.829-2.802C32,21.264,32,16.022,32,16.022
    S32,10.782,31.331,8.271z M12.727,20.78v-9.516l8.364,4.758L12.727,20.78z"/>
</svg>