<?xml version="1.0" encoding="utf-8"?><!DOCTYPE svg PUBLIC "-//W3C//DTD SVG 1.1//EN" "http://www.w3.org/Graphics/SVG/1.1/DTD/svg11.dtd"> <svg version="1.1" id="Layer_1" xmlns="http://www.w3.org/2000/svg" xmlns:xlink="http://www.w3.org/1999/xlink" x="0px" y="0px" width="151px" height="62.016px" viewBox="0 0 151 62.016" enable-background="new 0 0 151 62.016" xml:space="preserve"><title>Elements/mlabs-logo</title> <desc>Created with Sketch.</desc> <g id="Symbols"> <g id="Elements_x2F_mlabs-logo"> <path id="Labs" fill="#797C79" d="M28.088,55.316V33.492c0.007-0.276,0.23-0.497,0.506-0.5h3.152v22.675 c0.004,1.657,1.343,3.002,3,3.013h7.727c0.275,0.004,0.499,0.225,0.506,0.5V62h-8.233C31.067,61.98,28.093,58.996,28.088,55.316 L28.088,55.316z M60.514,48.076v12.686c0.006,0.328-0.121,0.645-0.352,0.878s-0.546,0.363-0.874,0.36h-8.963 c-1.492-0.002-2.922-0.6-3.972-1.66c-1.05-1.06-1.633-2.494-1.621-3.986v-1.201c-0.012-1.491,0.571-2.927,1.621-3.986 c1.05-1.061,2.479-1.658,3.972-1.66h6.469c0.233-0.003,0.42-0.193,0.421-0.426v-0.967c0.033-0.617-0.199-1.221-0.638-1.656 c-0.439-0.436-1.044-0.664-1.662-0.626h-7.621c-0.232-0.003-0.42-0.192-0.421-0.425V42.66h8.044 C58.023,42.661,60.514,44.557,60.514,48.076L60.514,48.076z M50.325,58.712h6.511c0.107-0.005,0.209-0.052,0.281-0.132 c0.072-0.08,0.109-0.186,0.103-0.293v-6.148c-0.216,0.348-0.591,0.564-1,0.578h-5.9c-0.604-0.002-1.184,0.238-1.608,0.668 c-0.425,0.428-0.66,1.01-0.651,1.614v1.431c-0.008,0.605,0.227,1.188,0.653,1.617S49.72,58.717,50.325,58.712L50.325,58.712z M79.811,48.313v8.045c0.023,3.086-2.452,5.607-5.537,5.643h-9.025c-0.327,0.001-0.64-0.13-0.868-0.363 c-0.229-0.232-0.354-0.549-0.346-0.875V32.99h2.882c0.232,0.005,0.417,0.194,0.417,0.426V43.9c0.613-0.801,1.571-1.26,2.579-1.238 h4.361c3.085,0.035,5.562,2.559,5.537,5.645V48.313z M76.512,48.158c0.011-0.602-0.221-1.182-0.641-1.611 c-0.421-0.428-0.997-0.67-1.598-0.671h-5.12c-1.003,0.131-1.77,0.961-1.82,1.972V58.4c0.001,0.107,0.047,0.209,0.126,0.283 c0.079,0.072,0.184,0.109,0.292,0.104h6.522c0.601-0.001,1.177-0.243,1.598-0.672c0.42-0.43,0.652-1.01,0.641-1.611V48.15V48.158z M82.419,50.357v-2.592c0-3.133,2.16-5.104,5.286-5.104h10.572v2.745c-0.002,0.234-0.189,0.423-0.424,0.426H87.706 c-0.526-0.08-1.061,0.094-1.44,0.467c-0.379,0.375-0.561,0.905-0.488,1.434v1.121c0.019,0.199,0.155,0.367,0.347,0.426 l11.923,2.824c0.61,0.115,1.051,0.649,1.047,1.271v3.442c0,3.365-2.392,5.184-5.518,5.184h-10.92v-2.746 c0.002-0.234,0.19-0.424,0.425-0.426h10.495c0.588,0.068,1.177-0.109,1.629-0.49c0.453-0.38,0.729-0.93,0.763-1.521V55 c-0.009-0.195-0.153-0.357-0.347-0.387l-12.115-2.979C82.885,51.523,82.431,50.988,82.419,50.357L82.419,50.357z"/> <path id="m" fill="#D34059" d="M24.088,48.538V62H21.07c-0.235,0.003-0.43-0.184-0.437-0.419V48.35 c-0.03-1.267-1.079-2.27-2.345-2.244h-5.164c0.411,0.201,0.684,0.607,0.715,1.064V62H10.82c-0.235,0.002-0.429-0.184-0.437-0.419 v-15.06c-0.007-0.235-0.201-0.422-0.436-0.418h-6c-0.197,0.004-0.365,0.146-0.4,0.342v15.136C3.54,61.816,3.346,62.003,3.11,62 H0.094V45.458c0.014-0.671,0.294-1.308,0.778-1.772c0.485-0.463,1.134-0.715,1.805-0.699h15.611 c1.506-0.037,2.965,0.527,4.054,1.57C23.431,45.598,24.059,47.031,24.088,48.538L24.088,48.538z"/> <g id="symbol" transform="translate(109.000000, 0.000000)"> <g id="Blocks" transform="translate(7.000000, 43.000000)"> <g id="_1" transform="translate(0.000000, 10.000000)"> <polygon id="Combined-Shape" fill="#FF9527" points="1.5,0 4.094,0 4.094,4 0.094,4 0.094,2.25 					"/> <rect id="square-3" x="5.094" fill="#D34059" width="4" height="4"/> <rect id="square-4" x="10.094" fill="#FF9527" width="4" height="4"/> <rect id="square-5" x="15.094" fill="#FF9527" width="4" height="4"/> <rect id="square-6" x="20.094" fill="#D34059" width="4" height="4"/> <polygon id="Combined-Shape_1_" fill="#FFE008" points="26.5,0 25.094,0 25.094,4 29.047,4 29,4 					"/> </g> <g id="_2" transform="translate(2.000000, 5.000000)"> <polygon id="Combined-Shape_2_" fill="#FFE008" points="2.094,0.85 2.094,4 0.125,4 					"/> <rect id="square-10" x="3.094" fill="#FF9527" width="4" height="4"/> <rect id="square-11" x="8.094" fill="#FFE008" width="4" height="4"/> <rect id="square-12" x="13.094" fill="#FFE008" width="4" height="4"/> <rect id="square-13" x="18.094" fill="#FF9527" width="4" height="4"/> <polygon id="Combined-Shape_3_" fill="#E02B4A" points="23.875,4 23,4 23,2.6 					"/> </g> <g id="_3" transform="translate(6.000000, 0.000000)"> <polygon id="Combined-Shape_4_" fill="#FFE008" points="1.75,0 4.094,0 4.094,4 0.094,4 0.094,2.649 					"/> <rect id="square-18" x="9.094" fill="#FFE008" width="4" height="4"/> <polygon id="Combined-Shape_5_" fill="#D34059" points="14.25,0 14.094,0 14.094,4 16.75,4 					"/> </g> </g> <g id="Flask" transform="translate(0.000000, 19.000000)"> <polygon id="Shape" fill="#D34059" points="2,43 40.586,43 40.586,39 0,39 				"/> <polygon id="Shape_1_" fill="#FF9527" points="17,12 13,18 13,3 17,3 				"/> <polygon id="Shape_2_" fill="#D34059" points="4,39 17,18 17,11 0,39 				"/> <polygon id="Shape-Copy" fill="#FF9527" points="25,18 25,11 42,39 40.59,43.016 				"/> <polygon id="Shape_3_" fill="#FFE008" points="25,18.361 29,24.312 29,2 25,2 				"/> <polygon id="Shape_4_" fill="#FFE008" points="31,4 11,4 11,0 31,0 				"/> </g> <g id="Inside" transform="translate(18.000000, 26.000000)"> <rect id="Rectangle-path" x="0.094" fill="#FFE008" width="3" height="3"/> <rect id="Rectangle-path_1_" x="3.094" y="5" fill="#FF9527" width="2" height="2"/> <rect id="Rectangle-path_2_" x="0.094" y="10" fill="#D34059" width="4" height="4"/> </g> <g id="Top" transform="translate(13.000000, 0.000000)"> <rect id="Rectangle-path_3_" x="5" fill="#D34059" width="2" height="2"/> <rect id="Rectangle-path_4_" x="11" y="1" fill="#FFE008" width="2" height="2"/> <rect id="Rectangle-path_5_" y="6" fill="#FFE008" width="2" height="2"/> <rect id="Rectangle-path_6_" x="2" y="10" fill="#FF9527" width="3" height="3"/> <rect id="Rectangle-path_7_" x="9" y="16" fill="#D34059" width="3" height="3"/> <rect id="Rectangle-path_8_" x="7.094" y="4" fill="#FF9527" width="3" height="3"/> <rect id="Rectangle-path_9_" x="10" y="7" fill="#FFE008" width="3" height="3"/> </g> </g> </g> </g> </svg>