<?xml version="1.0" encoding="UTF-8"?>
<svg width="24px" height="26px" viewBox="0 0 24 26" version="1.1" xmlns="http://www.w3.org/2000/svg" xmlns:xlink="http://www.w3.org/1999/xlink">
    <!-- Generator: Sketch 46.2 (44496) - http://www.bohemiancoding.com/sketch -->
    <title>calendario.svg</title>
    <desc>Created with Sketch.</desc>
    <defs></defs>
    <g id="Page-1" stroke="none" stroke-width="1" fill="none" fill-rule="evenodd">
        <g id="Elementos" transform="translate(-837.000000, -138.000000)" fill="currentColor">
            <g id="menu" transform="translate(50.000000, 87.000000)">
                <g id="3" transform="translate(736.000000, 32.000000)">
                    <path d="M52.8571429,43.1428571 L57.0357143,43.1428571 L57.0357143,38.9642857 L52.8571429,38.9642857 L52.8571429,43.1428571 Z M57.9642857,43.1428571 L62.6071429,43.1428571 L62.6071429,38.9642857 L57.9642857,38.9642857 L57.9642857,43.1428571 Z M52.8571429,38.0357143 L57.0357143,38.0357143 L57.0357143,33.3928571 L52.8571429,33.3928571 L52.8571429,38.0357143 Z M57.9642857,38.0357143 L62.6071429,38.0357143 L62.6071429,33.3928571 L57.9642857,33.3928571 L57.9642857,38.0357143 Z M52.8571429,32.4642857 L57.0357143,32.4642857 L57.0357143,28.2857143 L52.8571429,28.2857143 L52.8571429,32.4642857 Z M63.5357143,43.1428571 L68.1785714,43.1428571 L68.1785714,38.9642857 L63.5357143,38.9642857 L63.5357143,43.1428571 Z M57.9642857,32.4642857 L62.6071429,32.4642857 L62.6071429,28.2857143 L57.9642857,28.2857143 L57.9642857,32.4642857 Z M69.1071429,43.1428571 L73.2857143,43.1428571 L73.2857143,38.9642857 L69.1071429,38.9642857 L69.1071429,43.1428571 Z M63.5357143,38.0357143 L68.1785714,38.0357143 L68.1785714,33.3928571 L63.5357143,33.3928571 L63.5357143,38.0357143 Z M58.4285714,25.5 L58.4285714,21.3214286 C58.4285714,21.1956839 58.3826269,21.086868 58.2907366,20.9949777 C58.1988463,20.9030873 58.0900304,20.8571429 57.9642857,20.8571429 L57.0357143,20.8571429 C56.9099696,20.8571429 56.8011537,20.9030873 56.7092634,20.9949777 C56.6173731,21.086868 56.5714286,21.1956839 56.5714286,21.3214286 L56.5714286,25.5 C56.5714286,25.6257447 56.6173731,25.7345606 56.7092634,25.8264509 C56.8011537,25.9183412 56.9099696,25.9642857 57.0357143,25.9642857 L57.9642857,25.9642857 C58.0900304,25.9642857 58.1988463,25.9183412 58.2907366,25.8264509 C58.3826269,25.7345606 58.4285714,25.6257447 58.4285714,25.5 Z M69.1071429,38.0357143 L73.2857143,38.0357143 L73.2857143,33.3928571 L69.1071429,33.3928571 L69.1071429,38.0357143 Z M63.5357143,32.4642857 L68.1785714,32.4642857 L68.1785714,28.2857143 L63.5357143,28.2857143 L63.5357143,32.4642857 Z M69.1071429,32.4642857 L73.2857143,32.4642857 L73.2857143,28.2857143 L69.1071429,28.2857143 L69.1071429,32.4642857 Z M69.5714286,25.5 L69.5714286,21.3214286 C69.5714286,21.1956839 69.5254841,21.086868 69.4335938,20.9949777 C69.3417034,20.9030873 69.2328875,20.8571429 69.1071429,20.8571429 L68.1785714,20.8571429 C68.0528268,20.8571429 67.9440109,20.9030873 67.8521205,20.9949777 C67.7602302,21.086868 67.7142857,21.1956839 67.7142857,21.3214286 L67.7142857,25.5 C67.7142857,25.6257447 67.7602302,25.7345606 67.8521205,25.8264509 C67.9440109,25.9183412 68.0528268,25.9642857 68.1785714,25.9642857 L69.1071429,25.9642857 C69.2328875,25.9642857 69.3417034,25.9183412 69.4335938,25.8264509 C69.5254841,25.7345606 69.5714286,25.6257447 69.5714286,25.5 Z M75,24.5714286 L75,43.1428571 C75,43.6458358 74.8173095,44.0810994 74.4519231,44.4486607 C74.0865366,44.8162221 73.6538487,45 73.1538462,45 L52.8461538,45 C52.3461513,45 51.9134634,44.8162221 51.5480769,44.4486607 C51.1826905,44.0810994 51,43.6458358 51,43.1428571 L51,24.5714286 C51,24.0684499 51.1826905,23.6331864 51.5480769,23.265625 C51.9134634,22.8980636 52.3461513,22.7142857 52.8461538,22.7142857 L54.6923077,22.7142857 L54.6923077,21.3214286 C54.6923077,20.6830325 54.918267,20.136535 55.3701923,19.6819196 C55.8221176,19.2273043 56.3653814,19 57,19 L57.9230769,19 C58.5576955,19 59.1009593,19.2273043 59.5528846,19.6819196 C60.00481,20.136535 60.2307692,20.6830325 60.2307692,21.3214286 L60.2307692,22.7142857 L65.7692308,22.7142857 L65.7692308,21.3214286 C65.7692308,20.6830325 65.99519,20.136535 66.4471154,19.6819196 C66.8990407,19.2273043 67.4423045,19 68.0769231,19 L69,19 C69.6346186,19 70.1778824,19.2273043 70.6298077,19.6819196 C71.081733,20.136535 71.3076923,20.6830325 71.3076923,21.3214286 L71.3076923,22.7142857 L73.1538462,22.7142857 C73.6538487,22.7142857 74.0865366,22.8980636 74.4519231,23.265625 C74.8173095,23.6331864 75,24.0684499 75,24.5714286 Z" id="calendario.svg"></path>
                </g>
            </g>
        </g>
    </g>
</svg>