<svg width="57px" height="34px" viewBox="0 0 57 34" aria-hidden="true" focusable="false" role="img" xmlns="http://www.w3.org/2000/svg">
	<path fill="currentColor" d="M18.732,28.143h4.179v-4.178h-4.179V28.143z M23.839,28.143h4.644v-4.178h-4.644V28.143z M18.732,23.035h4.179v-4.643
		h-4.179V23.035z M23.839,23.035h4.644v-4.643h-4.644V23.035z M18.732,17.463h4.179v-4.179h-4.179V17.463z M29.41,28.143h4.645
		v-4.178H29.41V28.143z M23.839,17.463h4.644v-4.179h-4.644V17.463z M34.982,28.143h4.178v-4.178h-4.178V28.143z M29.41,23.035h4.645
		v-4.643H29.41V23.035z M24.305,10.5V6.32c0-0.125-0.047-0.233-0.139-0.325c-0.092-0.093-0.201-0.138-0.326-0.138h-0.929
		c-0.125,0-0.233,0.045-0.326,0.138c-0.092,0.092-0.138,0.2-0.138,0.325v4.18c0,0.125,0.046,0.234,0.138,0.327
		c0.093,0.092,0.201,0.138,0.326,0.138h0.929c0.125,0,0.234-0.046,0.326-0.138C24.258,10.734,24.305,10.625,24.305,10.5z
		M34.982,23.035h4.178v-4.643h-4.178V23.035z M29.41,17.463h4.645v-4.179H29.41V17.463z M34.982,17.463h4.178v-4.179h-4.178V17.463z
		M35.445,10.5V6.32c0-0.125-0.045-0.233-0.137-0.325c-0.093-0.093-0.201-0.138-0.326-0.138h-0.93c-0.125,0-0.234,0.045-0.326,0.138
		c-0.093,0.092-0.138,0.2-0.138,0.325v4.18c0,0.125,0.045,0.234,0.138,0.327c0.092,0.092,0.201,0.138,0.326,0.138h0.93
		c0.125,0,0.233-0.046,0.326-0.138C35.4,10.734,35.445,10.625,35.445,10.5z M40.875,9.57v18.573c0,0.504-0.184,0.938-0.548,1.307
		C39.961,29.816,39.529,30,39.029,30H18.721c-0.5,0-0.933-0.184-1.298-0.551c-0.364-0.369-0.548-0.803-0.548-1.307V9.57
		c0-0.502,0.184-0.938,0.548-1.305c0.366-0.369,0.798-0.552,1.298-0.552h1.846V6.32c0-0.637,0.227-1.184,0.679-1.639
		S22.24,4,22.875,4h0.923c0.636,0,1.179,0.227,1.63,0.682c0.452,0.455,0.678,1.002,0.678,1.639v1.394h5.539V6.32
		c0-0.637,0.227-1.184,0.678-1.639S33.316,4,33.952,4h0.923c0.635,0,1.178,0.227,1.63,0.682s0.679,1.002,0.679,1.639v1.394h1.846
		c0.5,0,0.933,0.185,1.299,0.552C40.691,8.632,40.875,9.068,40.875,9.57z"/>
</svg>
