<?xml version="1.0" encoding="UTF-8"?>
<svg width="57px" height="34px" viewBox="0 0 57 34" version="1.1" xmlns="http://www.w3.org/2000/svg" xmlns:xlink="http://www.w3.org/1999/xlink">
    <!-- Generator: Sketch 42 (36781) - http://www.bohemiancoding.com/sketch -->
    <title>dashboard</title>
    <desc>Created with Sketch.</desc>
    <defs></defs>
    <g id="Page-1" stroke="none" stroke-width="1" fill="none" fill-rule="evenodd">
        <g id="dashboard" fill="currentColor">
            <path d="M29.7470386,24.9122908 C30.4984213,25.4068404 30.9947826,26.2605351 30.9947826,27.2307692 C30.9947826,28.7601732 29.7614244,30 28.24,30 C26.7185756,30 25.4852174,28.7601732 25.4852174,27.2307692 C25.4852174,26.2605351 25.9815787,25.4068404 26.7329614,24.9122908 L28.24,14.3076923 L29.7470386,24.9122908 Z M49.36,27.2307692 L46.6052174,27.2307692 C46.6052174,17.0347431 38.3828295,8.76923077 28.24,8.76923077 L28.24,8.76923077 C18.0971705,8.76923077 9.87478261,17.0347431 9.87478261,27.2307692 L7.12,27.2307692 C7.12,15.5053392 16.5757461,6 28.24,6 C39.9042539,6 49.36,15.5053392 49.36,27.2307692 Z M12.6295652,25.3846154 C13.1367067,25.3846154 13.5478261,25.797891 13.5478261,26.3076923 C13.5478261,26.8174936 13.1367067,27.2307692 12.6295652,27.2307692 C12.1224237,27.2307692 11.7113043,26.8174936 11.7113043,26.3076923 C11.7113043,25.797891 12.1224237,25.3846154 12.6295652,25.3846154 L12.6295652,25.3846154 Z M14.466087,19.8461538 C14.9732284,19.8461538 15.3843478,20.2594295 15.3843478,20.7692308 C15.3843478,21.2790321 14.9732284,21.6923077 14.466087,21.6923077 C13.9589455,21.6923077 13.5478261,21.2790321 13.5478261,20.7692308 C13.5478261,20.2594295 13.9589455,19.8461538 14.466087,19.8461538 L14.466087,19.8461538 Z M17.2208696,15.2307692 C17.728011,15.2307692 18.1391304,15.6440448 18.1391304,16.1538462 C18.1391304,16.6636475 17.728011,17.0769231 17.2208696,17.0769231 C16.7137281,17.0769231 16.3026087,16.6636475 16.3026087,16.1538462 C16.3026087,15.6440448 16.7137281,15.2307692 17.2208696,15.2307692 L17.2208696,15.2307692 Z M21.8121739,12.4615385 C22.3193154,12.4615385 22.7304348,12.8748141 22.7304348,13.3846154 C22.7304348,13.8944167 22.3193154,14.3076923 21.8121739,14.3076923 C21.3050324,14.3076923 20.893913,13.8944167 20.893913,13.3846154 C20.893913,12.8748141 21.3050324,12.4615385 21.8121739,12.4615385 L21.8121739,12.4615385 Z M28.24,10.6153846 C28.7471415,10.6153846 29.1582609,11.0286602 29.1582609,11.5384615 C29.1582609,12.0482628 28.7471415,12.4615385 28.24,12.4615385 C27.7328585,12.4615385 27.3217391,12.0482628 27.3217391,11.5384615 C27.3217391,11.0286602 27.7328585,10.6153846 28.24,10.6153846 L28.24,10.6153846 Z M43.8504348,25.3846154 C43.3432933,25.3846154 42.9321739,25.797891 42.9321739,26.3076923 C42.9321739,26.8174936 43.3432933,27.2307692 43.8504348,27.2307692 C44.3575763,27.2307692 44.7686957,26.8174936 44.7686957,26.3076923 C44.7686957,25.797891 44.3575763,25.3846154 43.8504348,25.3846154 L43.8504348,25.3846154 Z M42.013913,19.8461538 C41.5067716,19.8461538 41.0956522,20.2594295 41.0956522,20.7692308 C41.0956522,21.2790321 41.5067716,21.6923077 42.013913,21.6923077 C42.5210545,21.6923077 42.9321739,21.2790321 42.9321739,20.7692308 C42.9321739,20.2594295 42.5210545,19.8461538 42.013913,19.8461538 L42.013913,19.8461538 Z M39.2591304,15.2307692 C38.751989,15.2307692 38.3408696,15.6440448 38.3408696,16.1538462 C38.3408696,16.6636475 38.751989,17.0769231 39.2591304,17.0769231 C39.7662719,17.0769231 40.1773913,16.6636475 40.1773913,16.1538462 C40.1773913,15.6440448 39.7662719,15.2307692 39.2591304,15.2307692 L39.2591304,15.2307692 Z M34.6678261,12.4615385 C34.1606846,12.4615385 33.7495652,12.8748141 33.7495652,13.3846154 C33.7495652,13.8944167 34.1606846,14.3076923 34.6678261,14.3076923 C35.1749676,14.3076923 35.586087,13.8944167 35.586087,13.3846154 C35.586087,12.8748141 35.1749676,12.4615385 34.6678261,12.4615385 L34.6678261,12.4615385 Z" id="dashboard.svg"></path>
        </g>
    </g>
</svg>