<svg width="32px" height="28px" viewBox="0 0 32 28" aria-hidden="true" focusable="false" role="img" xmlns="http://www.w3.org/2000/svg">
  <path fill="currentColor" d="M30.582,3.362H4.875c-0.733,0-1.33,0.597-1.33,1.329v0.443H1.329C0.595,5.135,0,5.73,0,6.465v15.513
	c0,1.469,1.19,2.66,2.659,2.66h27.924c0.733,0,1.329-0.596,1.329-1.331V4.691C31.911,3.959,31.315,3.362,30.582,3.362z
	 M1.772,21.979V6.908h1.773v15.07c0,0.489-0.398,0.886-0.887,0.886C2.17,22.864,1.772,22.468,1.772,21.979z M30.139,22.864H5.166
	c0.101-0.284,0.152-0.584,0.152-0.886V5.135h24.82V22.864z M7.755,17.546h9.307c0.368,0,0.666-0.299,0.666-0.665V7.573
	c0-0.367-0.299-0.665-0.666-0.665H7.755c-0.366,0-0.665,0.298-0.665,0.665v9.308C7.091,17.247,7.389,17.546,7.755,17.546z
	 M8.864,8.681h7.091v7.09H8.864V8.681z M7.091,20.427v-0.443c0-0.367,0.298-0.665,0.665-0.665h9.307
	c0.368,0,0.666,0.298,0.666,0.665v0.443c0,0.367-0.299,0.665-0.666,0.665H7.755C7.389,21.092,7.091,20.794,7.091,20.427z
	 M19.501,20.427v-0.443c0-0.367,0.298-0.665,0.665-0.665h7.535c0.368,0,0.666,0.298,0.666,0.665v0.443
	c0,0.367-0.298,0.665-0.666,0.665h-7.535C19.799,21.092,19.501,20.794,19.501,20.427z M19.501,16.881v-0.443
	c0-0.367,0.298-0.666,0.665-0.666h7.535c0.368,0,0.666,0.299,0.666,0.666v0.443c0,0.366-0.298,0.665-0.666,0.665h-7.535
	C19.799,17.546,19.501,17.247,19.501,16.881z M19.501,9.789V9.346c0-0.367,0.298-0.665,0.665-0.665h7.535
	c0.368,0,0.666,0.298,0.666,0.665v0.443c0,0.368-0.298,0.666-0.666,0.666h-7.535C19.799,10.454,19.501,10.156,19.501,9.789z
	 M19.501,13.334v-0.442c0-0.367,0.298-0.665,0.665-0.665h7.535c0.368,0,0.666,0.298,0.666,0.665v0.442
	c0,0.368-0.298,0.666-0.666,0.666h-7.535C19.799,14,19.501,13.703,19.501,13.334z"/>
</svg>