<svg width="57px" height="34px" viewBox="0 0 57 34" aria-hidden="true" focusable="false" role="img" xmlns="http://www.w3.org/2000/svg">
	<path fill="currentColor"  d="M43.126,6.362H17.419c-0.733,0-1.33,0.597-1.33,1.329v0.443h-2.216c-0.734,0.001-1.329,0.596-1.329,1.331v15.514
		c0,1.469,1.19,2.66,2.659,2.66h27.924c0.733,0,1.329-0.597,1.329-1.332V7.691C44.455,6.959,43.858,6.362,43.126,6.362z
		M14.316,24.979V9.908h1.773v15.07c0,0.487-0.398,0.885-0.887,0.885C14.714,25.863,14.316,25.469,14.316,24.979z M42.683,25.863
		H17.71c0.101-0.283,0.152-0.584,0.152-0.885V8.135h24.821V25.863L42.683,25.863z M20.299,20.546h9.309
		c0.367,0,0.666-0.299,0.666-0.665v-9.308c0-0.367-0.299-0.665-0.666-0.665h-9.309c-0.366,0-0.665,0.298-0.665,0.665v9.308
		C19.635,20.247,19.933,20.546,20.299,20.546z M21.408,11.681h7.091v7.09h-7.091V11.681z M19.635,23.428v-0.443
		c0-0.366,0.298-0.666,0.665-0.666h9.308c0.369,0,0.666,0.3,0.666,0.666v0.443c0,0.366-0.299,0.664-0.666,0.664h-9.309
		C19.933,24.092,19.635,23.794,19.635,23.428z M32.045,23.428v-0.443c0-0.366,0.298-0.666,0.665-0.666h7.535
		c0.366,0,0.666,0.3,0.666,0.666v0.443c0,0.366-0.3,0.664-0.666,0.664H32.71C32.343,24.092,32.045,23.794,32.045,23.428z
		M32.045,19.881v-0.443c0-0.367,0.298-0.666,0.665-0.666h7.535c0.366,0,0.666,0.299,0.666,0.666v0.443
		c0,0.366-0.3,0.665-0.666,0.665H32.71C32.343,20.546,32.045,20.247,32.045,19.881z M32.045,12.789v-0.443
		c0-0.367,0.298-0.665,0.665-0.665h7.535c0.366,0,0.666,0.298,0.666,0.665v0.443c0,0.368-0.3,0.666-0.666,0.666H32.71
		C32.343,13.454,32.045,13.156,32.045,12.789z M32.045,16.334v-0.442c0-0.367,0.298-0.665,0.665-0.665h7.535
		c0.366,0,0.666,0.298,0.666,0.665v0.442c0,0.368-0.3,0.666-0.666,0.666H32.71C32.343,17,32.045,16.703,32.045,16.334z"/>
</svg>