<?xml version="1.0" encoding="UTF-8"?>
<svg width="57px" height="34px" viewBox="0 0 57 34" version="1.1" xmlns="http://www.w3.org/2000/svg" xmlns:xlink="http://www.w3.org/1999/xlink">
    <!-- Generator: Sketch 42 (36781) - http://www.bohemiancoding.com/sketch -->
    <title>inbox</title>
    <desc>Created with Sketch.</desc>
    <defs></defs>
    <g id="Page-1" stroke="none" stroke-width="1" fill="none" fill-rule="evenodd">
        <g id="inbox" fill="currentColor">
            <path d="M32.5855343,18.1 L38.017625,18.1 C38.0061649,18.0656248 37.9918399,18.019792 37.9746496,17.9625 C37.9574594,17.905208 37.9431344,17.8593752 37.9316742,17.825 L34.2873602,9.3 L22.1167265,9.3 L18.4724124,17.825 C18.4609523,17.8479168 18.4466273,17.8937497 18.429437,17.9625 C18.4122468,18.0312503 18.3979218,18.0770832 18.3864616,18.1 L23.8185524,18.1 L25.4516176,21.4 L30.952469,21.4 L32.5855343,18.1 Z M41.4040867,18.615625 L41.4040867,26.9 C41.4040867,27.1979182 41.2952168,27.4557281 41.0774736,27.6734375 C40.8597305,27.8911469 40.6018807,28 40.3039164,28 L16.1001703,28 C15.802206,28 15.5443562,27.8911469 15.3266131,27.6734375 C15.1088699,27.4557281 15,27.1979182 15,26.9 L15,18.615625 C15,17.9052048 15.1432499,17.2005243 15.429754,16.5015625 L19.5210122,7.0140625 C19.6356139,6.72760273 19.8447587,6.48698014 20.1484531,6.2921875 C20.4521475,6.09739486 20.7529723,6 21.0509365,6 L35.3531502,6 C35.6511144,6 35.9519392,6.09739486 36.2556336,6.2921875 C36.5593279,6.48698014 36.7684728,6.72760273 36.8830744,7.0140625 L40.9743327,16.5015625 C41.2608368,17.2005243 41.4040867,17.9052048 41.4040867,18.615625 L41.4040867,18.615625 Z" id="inbox.svg"></path>
        </g>
    </g>
</svg>