<svg width="57px" height="34px" viewBox="0 0 57 34" aria-hidden="true" focusable="false" role="img" xmlns="http://www.w3.org/2000/svg">
  <path fill="currentColor" d="M32.6545618,23.4517696 L47.1680192,10.9573376 C47.4965505,11.131395 47.8615507,11.2500526 48.252225,11.2994231 C49.9828015,11.5181205 51.5637616,10.2946662 51.7859377,8.56479634 C52.0081138,6.83492646 50.7876199,5.25177848 49.057928,5.02619337 L49.0571473,5.02619337 C48.2223376,4.9181575 47.3788723,5.14705355 46.7132507,5.66227018 C46.047629,6.17748681 45.6146843,6.93658081 45.5101453,7.7717085 C45.4273937,8.43697194 45.5577065,9.07970903 45.8477968,9.63136563 L31.4496521,22.027137 C31.069432,21.7834626 30.6307828,21.6177585 30.1533365,21.5554903 L30.1533365,21.5554903 C29.5088257,21.4719213 28.8591102,21.5891937 28.2900243,21.8840302 L22.73627,16.1666156 C22.8989604,15.8495507 23.0104197,15.4994068 23.0584538,15.1256186 C23.2808172,13.3952475 22.0599977,11.8115681 20.3297884,11.5859214 L20.3297884,11.5859214 C19.4946942,11.4772226 18.650711,11.7058287 17.9846889,12.2211284 C17.3186667,12.7364282 16.8855494,13.4959117 16.7812249,14.3314366 C16.7030425,14.9588587 16.8143423,15.5662866 17.0704526,16.0962283 L9.47432661,23.9585063 C9.19502999,23.8314541 8.89238015,23.7432185 8.57229272,23.701473 L8.57229272,23.701473 C7.7373591,23.5932133 6.89369096,23.8220053 6.22789445,24.3372439 C5.56209795,24.8524824 5.12904134,25.6117066 5.02450997,26.4469881 C4.80922447,28.1777288 6.03601311,29.7560054 7.76658966,29.9747027 C9.49716621,30.1934001 11.0781263,28.9699458 11.3003024,27.2400759 C11.394689,26.5051788 11.2287043,25.7967619 10.8739198,25.2076633 L18.3520148,17.4704295 C18.7027178,17.6707431 19.0978444,17.8067979 19.5234477,17.8606443 C20.2056385,17.9469537 20.864614,17.8092078 21.4263336,17.5046918 L26.9560696,23.1997305 C26.7743404,23.5389707 26.6542699,23.9117284 26.6055538,24.3010054 C26.3902683,26.0317461 27.6170569,27.6100227 29.3476335,27.82872 C31.07821,28.0474174 32.6591701,26.8239631 32.8813462,25.0940933 C32.955712,24.5150787 32.8684489,23.9525021 32.6545618,23.4517696 Z" id="acompanhamento.svg"></path>
</svg>