<svg width="57px" height="34px" viewBox="0 0 57 34" aria-hidden="true" focusable="false" role="img" xmlns="http://www.w3.org/2000/svg">
  <path fill="currentColor" d="M39.0769231,7.84615385 C39.597759,7.84615385 40.0484757,8.03645643 40.4290865,8.41706731 C40.8096974,8.79767819 41,9.24839483 41,9.76923077 L41,29 C41,29.5208359 40.8096974,29.9715526 40.4290865,30.3521635 C40.0484757,30.7327743 39.597759,30.9230769 39.0769231,30.9230769 L17.9230769,30.9230769 C17.402241,30.9230769 16.9515243,30.7327743 16.5709135,30.3521635 C16.1903026,29.9715526 16,29.5208359 16,29 L16,9.76923077 C16,9.24839483 16.1903026,8.79767819 16.5709135,8.41706731 C16.9515243,8.03645643 17.402241,7.84615385 17.9230769,7.84615385 L19.8461538,7.84615385 L19.8461538,6.40384615 C19.8461538,5.74278516 20.0815281,5.17688537 20.5522837,4.70612981 C21.0230392,4.23537425 21.588939,4 22.25,4 L23.2115385,4 C23.8725995,4 24.4384992,4.23537425 24.9092548,4.70612981 C25.3800104,5.17688537 25.6153846,5.74278516 25.6153846,6.40384615 L25.6153846,7.84615385 L31.3846154,7.84615385 L31.3846154,6.40384615 C31.3846154,5.74278516 31.6199896,5.17688537 32.0907452,4.70612981 C32.5615008,4.23537425 33.1274005,4 33.7884615,4 L34.75,4 C35.411061,4 35.9769608,4.23537425 36.4477163,4.70612981 C36.9184719,5.17688537 37.1538462,5.74278516 37.1538462,6.40384615 L37.1538462,7.84615385 L39.0769231,7.84615385 Z M33.3076923,6.40384615 L33.3076923,10.7307692 C33.3076923,10.8709943 33.352764,10.9861774 33.4429087,11.0763221 C33.5330533,11.1664668 33.6482365,11.2115385 33.7884615,11.2115385 L34.75,11.2115385 C34.8902251,11.2115385 35.0054082,11.1664668 35.0955529,11.0763221 C35.1856976,10.9861774 35.2307692,10.8709943 35.2307692,10.7307692 L35.2307692,6.40384615 C35.2307692,6.26362109 35.1856976,6.14843795 35.0955529,6.05829327 C35.0054082,5.96814859 34.8902251,5.92307692 34.75,5.92307692 L33.7884615,5.92307692 C33.6482365,5.92307692 33.5330533,5.96814859 33.4429087,6.05829327 C33.352764,6.14843795 33.3076923,6.26362109 33.3076923,6.40384615 Z M21.7692308,6.40384615 L21.7692308,10.7307692 C21.7692308,10.8709943 21.8143024,10.9861774 21.9044471,11.0763221 C21.9945918,11.1664668 22.1097749,11.2115385 22.25,11.2115385 L23.2115385,11.2115385 C23.3517635,11.2115385 23.4669467,11.1664668 23.5570913,11.0763221 C23.647236,10.9861774 23.6923077,10.8709943 23.6923077,10.7307692 L23.6923077,6.40384615 C23.6923077,6.26362109 23.647236,6.14843795 23.5570913,6.05829327 C23.4669467,5.96814859 23.3517635,5.92307692 23.2115385,5.92307692 L22.25,5.92307692 C22.1097749,5.92307692 21.9945918,5.96814859 21.9044471,6.05829327 C21.8143024,6.14843795 21.7692308,6.26362109 21.7692308,6.40384615 Z M39.0769231,29 L39.0769231,13.6153846 L17.9230769,13.6153846 L17.9230769,29 L39.0769231,29 Z M29.4615385,20.3461538 L32.8269231,20.3461538 C32.9671481,20.3461538 33.0823313,20.3912255 33.172476,20.4813702 C33.2626206,20.5715149 33.3076923,20.686698 33.3076923,20.8269231 L33.3076923,21.7884615 C33.3076923,21.9286866 33.2626206,22.0438697 33.172476,22.1340144 C33.0823313,22.2241591 32.9671481,22.2692308 32.8269231,22.2692308 L29.4615385,22.2692308 L29.4615385,25.6346154 C29.4615385,25.7748404 29.4164668,25.8900236 29.3263221,25.9801683 C29.2361774,26.070313 29.1209943,26.1153846 28.9807692,26.1153846 L28.0192308,26.1153846 C27.8790057,26.1153846 27.7638226,26.070313 27.6736779,25.9801683 C27.5835332,25.8900236 27.5384615,25.7748404 27.5384615,25.6346154 L27.5384615,22.2692308 L24.1730769,22.2692308 C24.0328519,22.2692308 23.9176687,22.2241591 23.827524,22.1340144 C23.7373794,22.0438697 23.6923077,21.9286866 23.6923077,21.7884615 L23.6923077,20.8269231 C23.6923077,20.686698 23.7373794,20.5715149 23.827524,20.4813702 C23.9176687,20.3912255 24.0328519,20.3461538 24.1730769,20.3461538 L27.5384615,20.3461538 L27.5384615,16.9807692 C27.5384615,16.8405442 27.5835332,16.725361 27.6736779,16.6352163 C27.7638226,16.5450717 27.8790057,16.5 28.0192308,16.5 L28.9807692,16.5 C29.1209943,16.5 29.2361774,16.5450717 29.3263221,16.6352163 C29.4164668,16.725361 29.4615385,16.8405442 29.4615385,16.9807692 L29.4615385,20.3461538 Z" id=""></path>
</svg>