<?xml version="1.0" encoding="UTF-8"?>
<svg width="57px" height="34px" viewBox="0 0 57 34" version="1.1" xmlns="http://www.w3.org/2000/svg" xmlns:xlink="http://www.w3.org/1999/xlink">
    <!-- Generator: Sketch 42 (36781) - http://www.bohemiancoding.com/sketch -->
    <title>conteudo</title>
    <desc>Created with Sketch.</desc>
    <defs></defs>
    <g id="Page-1" stroke="none" stroke-width="1" fill="none" fill-rule="evenodd">
        <g id="conteudo" fill="currentColor">
            <path d="M25.0536347,27.0104993 L18.9131127,27.0104993 C18.7927821,27.0123255 18.6772306,26.9634713 18.5947153,26.8758835 C18.5066295,26.7928121 18.4571762,26.6767798 18.4582592,26.5557162 L18.4582592,23.8270177 C18.4572868,23.7059762 18.506722,23.5899862 18.5947153,23.5068504 C18.6772961,23.4193569 18.7928041,23.370521 18.9131127,23.3722346 L26.4955203,23.3722346 L25.0536347,24.813897 L25.0536347,27.0104993 Z M28.3149342,21.5531023 L18.9131127,21.5531023 C18.7927821,21.5549285 18.6772306,21.5060743 18.5947153,21.4184865 C18.5066295,21.3354151 18.4571762,21.2193828 18.4582592,21.0983192 L18.4582592,18.3696207 C18.4572868,18.2485792 18.506722,18.1325892 18.5947153,18.0494534 C18.6772961,17.9619599 18.7928041,17.9131241 18.9131127,17.9148376 L31.9537621,17.9148376 L28.3149342,21.5531023 Z M33.773176,16.0957053 L18.9131127,16.0957053 C18.7927821,16.0975315 18.6772306,16.0486773 18.5947153,15.9610895 C18.5066295,15.8780181 18.4571762,15.7619858 18.4582592,15.6409222 L18.4582592,12.9122237 C18.4572868,12.7911822 18.506722,12.6751922 18.5947153,12.5920564 C18.6772961,12.5045629 18.7928041,12.4557271 18.9131127,12.4574406 L37.4120039,12.4574406 L33.773176,16.0957053 Z M16.5023892,23.5068504 L16.5023892,23.5068504 C16.5903825,23.5899862 16.6398177,23.7059762 16.6388453,23.8270177 L16.6388453,26.5557162 C16.6399283,26.6767798 16.590475,26.7928121 16.5023892,26.8758835 C16.4198739,26.9634713 16.3043224,27.0123255 16.1839918,27.0104993 L13.4548709,27.0104993 C13.3345403,27.0123255 13.2189888,26.9634713 13.1364735,26.8758835 C13.0483877,26.7928121 12.9989344,26.6767798 13.0000174,26.5557162 L13.0000174,23.8270177 C12.999045,23.7059762 13.0484802,23.5899862 13.1364735,23.5068504 C13.2190543,23.4193569 13.3345623,23.370521 13.4548709,23.3722346 L16.1839918,23.3722346 C16.3043004,23.370521 16.4198084,23.4193569 16.5023892,23.5068504 Z M16.5023892,18.0494534 L16.5023892,18.0494534 C16.5903825,18.1325892 16.6398177,18.2485792 16.6388453,18.3696207 L16.6388453,21.0983192 C16.6399283,21.2193828 16.590475,21.3354151 16.5023892,21.4184865 C16.4198739,21.5060743 16.3043224,21.5549285 16.1839918,21.5531023 L13.4548709,21.5531023 C13.3345403,21.5549285 13.2189888,21.5060743 13.1364735,21.4184865 C13.0483877,21.3354151 12.9989344,21.2193828 13.0000174,21.0983192 L13.0000174,18.3696207 C12.999045,18.2485792 13.0484802,18.1325892 13.1364735,18.0494534 C13.2190543,17.9619599 13.3345623,17.9131241 13.4548709,17.9148376 L16.1839918,17.9148376 C16.3043004,17.9131241 16.4198084,17.9619599 16.5023892,18.0494534 Z M16.5023892,12.5920564 L16.5023892,12.5920564 C16.5903825,12.6751922 16.6398177,12.7911822 16.6388453,12.9122237 L16.6388453,15.6409222 C16.6399283,15.7619858 16.590475,15.8780181 16.5023892,15.9610895 C16.4198739,16.0486773 16.3043224,16.0975315 16.1839918,16.0957053 L13.4548709,16.0957053 C13.3345403,16.0975315 13.2189888,16.0486773 13.1364735,15.9610895 C13.0483877,15.8780181 12.9989344,15.7619858 13.0000174,15.6409222 L13.0000174,12.9122237 C12.999045,12.7911822 13.0484802,12.6751922 13.1364735,12.5920564 C13.2190543,12.5045629 13.3345623,12.4557271 13.4548709,12.4574406 L16.1839918,12.4574406 C16.3043004,12.4557271 16.4198084,12.5045629 16.5023892,12.5920564 Z M16.5023892,7.13465942 L16.5023892,7.13465942 C16.5903825,7.21779524 16.6398177,7.33378523 16.6388453,7.45482671 L16.6388453,10.1835252 C16.6396747,10.3042733 16.5902422,10.4199274 16.5023892,10.5027829 C16.4200336,10.5907062 16.3044609,10.6398995 16.1839918,10.6383083 L13.4548709,10.6383083 C13.3344018,10.6398995 13.2188291,10.5907062 13.1364735,10.5027829 C13.0486205,10.4199274 12.9991881,10.3042733 13.0000174,10.1835252 L13.0000174,7.45482671 C12.999045,7.33378523 13.0484802,7.21779524 13.1364735,7.13465942 C13.2190543,7.04716588 13.3345623,6.99833006 13.4548709,7.00004362 L16.1839918,7.00004362 C16.3043004,6.99833006 16.4198084,7.04716588 16.5023892,7.13465942 Z M38.3353564,7.13465942 L38.3353564,7.13465942 C38.4233497,7.21779524 38.4727849,7.33378523 38.4718125,7.45482671 L38.4718125,10.1835252 C38.4726418,10.3042733 38.4232094,10.4199274 38.3353564,10.5027829 C38.2530008,10.5907062 38.1374281,10.6398995 38.016959,10.6383083 L18.9131127,10.6383083 C18.7926436,10.6398995 18.6770709,10.5907062 18.5947153,10.5027829 C18.5068623,10.4199274 18.4574298,10.3042733 18.4582592,10.1835252 L18.4582592,7.45482671 C18.4572868,7.33378523 18.506722,7.21779524 18.5947153,7.13465942 C18.6772961,7.04716588 18.7928041,6.99833006 18.9131127,7.00004362 L38.016959,7.00004362 C38.1372676,6.99833006 38.2527756,7.04716588 38.3353564,7.13465942 Z M40.2981064,14.5119729 C37.6560706,17.1534548 31.3900513,23.4244875 28.9875539,25.8311276 C29.7425526,26.1250308 30.4263499,26.5861875 30.9849241,27.185136 C31.484797,27.6873969 31.8805208,28.278324 32.1542756,28.9237771 C34.580521,26.5211865 40.7395083,20.4254766 43.4192569,17.7574556 C43.0550704,16.1808999 41.8533189,14.9357683 40.2981064,14.5119729 Z M41.3868881,13.4242376 C42.8238124,14.0303129 43.9583735,15.1972155 44.5222967,16.6548734 C44.5827689,16.5937792 44.6283518,16.5473629 44.6578198,16.5168344 C45.1509902,16.0931021 45.4553669,15.4906603 45.5038473,14.8423231 C45.4381968,14.2191918 45.1272493,13.6477915 44.6396257,13.2542206 C44.2554873,12.8383255 43.7224721,12.5911494 43.1568033,12.5665886 C42.529872,12.6113334 41.9395158,12.878404 41.4920396,13.3197093 C41.4766286,13.3348869 41.4410333,13.3702749 41.3868881,13.4242376 Z M31.0254895,29.8794149 C30.5785047,28.4891444 29.4689043,27.4047477 28.0604401,26.9933265 C27.7439619,28.0523689 27.0833122,30.0430181 26.7002043,31.3209333 C28.0118627,30.8984455 30.0735205,30.1866087 31.0254895,29.8794149 Z M25.745012,32.9999925 C25.5234705,33.0010223 25.3147818,32.8961139 25.1834726,32.7177049 C25.0521634,32.539296 25.0140533,32.3088804 25.0809259,32.0977029 C25.0991201,32.0494958 26.5728454,27.2069656 26.8730487,26.1163957 C26.9017265,25.9970503 26.9650215,25.8888326 27.05499,25.8053241 C27.1449586,25.7218156 40.1456733,12.7075713 40.5277502,12.3264631 C41.2268373,11.6232667 42.1659613,11.210311 43.1568033,11.1704045 C44.079163,11.1913755 44.9557059,11.5766022 45.594818,12.2418734 C46.3590565,12.8881816 46.8257617,13.8188186 46.8866019,14.8177648 C46.8545747,15.8401531 46.40794,16.8055228 45.6494004,17.4918894 C44.8397612,18.3286902 32.6314937,30.4077289 32.1129608,30.9189051 C32.0311651,30.9985791 31.9312804,31.0572523 31.8218545,31.0899035 C31.0031183,31.3354864 26.008827,32.9508759 25.9542446,32.9672481 C25.886644,32.9890434 25.8160403,33.0000927 25.745012,32.9999925 L25.745012,32.9999925 Z" id="conteudo.svg"></path>
        </g>
    </g>
</svg>